# xmcd
#
# Track frame offsets:
# 151
# 15824
# 32990
# 51796
# 61533
# 77228
# 90677
# 107406
# 118766
# 132030
# 145807
# 156495
# 169270
# 185937
# 201261
# 213920
# 230485
# 244199
#
# Disc length: 3485 seconds
#
#
# Revision: 0
# Processed by: cddbd v1.5PL3 Copyright (c) Steve Scherf et al.
# Submitted via: FreeRIP 2.30 
#
DISCID=f60d9b12
DTITLE=咱的台灣歌-5
DYEAR=1900
DGENRE=
TTITLE0=孤女的願望
TTITLE1=為著十萬元
TTITLE2=懷著的播音員
TTITLE3=祖母的話
TTITLE4=台北迎城隍
TTITLE5=他相思妻兒
TTITLE6=思念故鄉的情人
TTITLE7=星星之我心
TTITLE8=可憐戀花再會吧
TTITLE9=無聊的人生
TTITLE10=河邊春夢
TTITLE11=採茶歌
TTITLE12=三年前的我
TTITLE13=三年後的我
TTITLE14=雙雁影
TTITLE15=流浪的拳頭師
TTITLE16=車站惜別
TTITLE17=啟田純情曲
EXTD=
EXTT0=
EXTT1=
EXTT2=
EXTT3=
EXTT4=
EXTT5=
EXTT6=
EXTT7=
EXTT8=
EXTT9=
EXTT10=
EXTT11=
EXTT12=
EXTT13=
EXTT14=
EXTT15=
EXTT16=
EXTT17=
PLAYORDER=
